<?xml version="1.0" encoding="UTF-8"?>
<!-- Generated by Pixelmator Pro 3.6.15, with green background added -->
<svg width="300" height="289" viewBox="0 0 3000 2899" xmlns="http://www.w3.org/2000/svg">
    <rect width="3000" height="2899" fill="#2e5339"/>
    <path id="Path" fill="#fdfefe" stroke="none" d="M 336.465942 1799.243164 C 334.790436 1780.775513 332.914886 1763.233154 331.52475 1745.652222 C 330.003052 1726.407593 327.826477 1707.127686 327.82431 1687.862915 C 327.783142 1321.886353 328.021423 955.909668 328.201416 589.933105 C 328.203033 586.614746 328.201599 583.296143 328.201599 579.407471 C 331.223358 577.98291 334.114777 576.530518 337.075623 575.236816 C 612.489685 454.922363 887.905273 334.611328 1163.330078 214.321289 C 1254.086548 174.684082 1344.866821 135.101318 1435.6427 95.508789 C 1438.68042 94.183838 1441.745605 92.894531 1444.875732 91.814453 C 1451.063354 89.678955 1456.705322 90.220703 1463.030884 92.989502 C 1687.153198 191.088867 1911.372437 288.967285 2135.584229 386.862549 C 2279.092041 449.520508 2422.610107 512.155273 2566.119385 574.810059 C 2569.152832 576.134277 2572.135254 577.575684 2575.798828 579.265625 C 2575.798828 582.76416 2575.797119 586.392822 2575.799072 590.021729 C 2575.97876 955.998291 2576.257324 1321.974854 2576.112305 1687.951294 C 2576.102783 1711.856323 2572.92041 1735.765747 2571.071289 1759.662109 C 2570.147461 1771.599243 2569.414795 1783.58667 2567.685059 1795.418213 C 2564.852539 1814.790771 2561.439941 1834.084229 2557.979736 1853.358521 C 2551.335449 1890.370728 2542.439209 1926.8479 2531.06665 1962.696411 C 2515.146729 2012.879639 2494.042725 2060.900391 2469.749023 2107.527588 C 2435.827393 2172.633301 2395.464111 2233.527832 2348.850342 2290.241455 C 2278.547852 2375.776367 2196.391602 2448.321045 2106.173096 2512.14502 C 2009.269165 2580.69751 1906.685669 2639.549805 1800.189453 2691.630371 C 1753.31189 2714.555176 1705.991577 2736.715088 1658.017334 2757.221924 C 1591.114014 2785.819824 1523.38916 2812.494385 1456.106812 2840.212646 C 1452.835571 2841.560547 1450.469604 2841.094971 1447.723999 2839.963867 C 1391.485474 2816.798828 1335.164307 2793.831787 1279.046875 2770.377441 C 1243.189209 2755.390869 1207.295654 2740.415283 1172.004639 2724.161621 C 1047.672974 2666.898193 927.525696 2602.07959 814.836975 2523.993652 C 762.477356 2487.711914 711.736206 2449.287598 665.134705 2405.824219 C 639.096375 2381.539551 614.542725 2355.614014 590.023865 2329.760254 C 552.103271 2289.775146 518.959229 2245.951172 488.67807 2199.965576 C 443.737762 2131.718506 406.767609 2059.424072 379.469391 1982.335327 C 363.564056 1937.4198 352.686981 1891.169922 344.277435 1844.318115 C 341.636261 1829.603394 339.076721 1814.873901 336.465942 1799.243164 M 2085.886963 2432.930908 C 2107.885742 2414.715576 2130.091064 2396.742432 2151.819092 2378.209717 C 2170.029053 2362.677734 2188.099121 2346.93335 2205.483154 2330.492188 C 2231.105469 2306.259766 2254.916748 2280.305908 2277.282959 2252.9729 C 2288.845215 2238.843262 2302.291992 2226.273193 2314.27417 2212.466309 C 2354.946777 2165.599365 2386.421631 2112.896973 2410.62085 2055.9646 C 2440.424805 1985.846436 2463.926758 1913.669312 2477.628906 1838.539917 C 2480.124512 1824.855713 2482.456299 1811.131958 2484.417969 1797.362915 C 2486.377686 1783.608521 2487.920654 1769.789673 2489.390137 1755.971924 C 2491.598145 1735.209717 2495.392334 1714.423584 2495.393066 1693.647705 C 2495.402588 1341.37793 2494.929199 989.108154 2494.562988 636.838379 C 2494.559326 633.283691 2494.5625 629.729004 2494.5625 625.540771 C 2460.203369 609.8479 2426.85083 594.199951 2393.15332 579.333496 C 2354.598145 562.32373 2315.656006 546.192627 2277.031982 529.336182 C 2243.258789 514.59668 2209.751465 499.247559 2176.019043 484.412598 C 2143.495117 470.108887 2110.820801 456.146973 2078.235596 441.981689 C 2046.899658 428.359375 2015.630859 414.581787 1984.262207 401.035645 C 1959.861694 390.498779 1935.302246 380.330078 1910.90332 369.789795 C 1863.978271 349.518311 1817.166992 328.983643 1770.21228 308.781494 C 1736.680908 294.354736 1702.960327 280.369141 1669.383423 266.047363 C 1631.55603 249.912598 1593.798462 233.614502 1556.004395 217.401367 C 1526.113159 204.578613 1495.980713 192.281006 1466.448364 178.679688 C 1456.751465 174.213623 1447.68103 175.220459 1439.337646 178.482422 C 1412.148315 189.112305 1385.484863 201.081543 1358.559937 212.394775 C 1334.396729 222.547607 1310.031982 232.228516 1285.975342 242.625 C 1239.691406 262.627197 1193.645264 283.180176 1147.342529 303.137939 C 1111.980835 318.379883 1076.238037 332.739502 1040.910767 348.059082 C 987.922424 371.037109 935.216309 394.665527 882.257019 417.71167 C 855.773438 429.236328 828.854431 439.761719 802.384399 451.316406 C 766.769409 466.862793 731.449646 483.084717 695.904663 498.793701 C 668.590637 510.865234 641.100281 522.536621 613.731384 534.484863 C 564.156921 556.126709 514.52887 577.649658 465.102631 599.625732 C 446.35556 607.961426 428.104095 617.411621 409.977905 626.183594 C 409.416382 651.456787 408.415039 675.731445 408.407471 700.006348 C 408.303894 1031.311157 408.337616 1362.615845 408.339233 1693.920532 C 408.339264 1696.586792 408.115753 1699.281128 408.413452 1701.915161 C 411.649353 1730.548706 414.488831 1759.238892 418.407166 1787.780273 C 421.964355 1813.690674 425.531799 1839.704346 431.27417 1865.181274 C 437.321716 1892.012451 445.979309 1918.253906 453.449493 1944.766235 C 469.086609 2000.263428 489.82251 2053.758057 516.759338 2104.763672 C 536.536499 2142.212158 559.538696 2177.560791 587.387573 2209.577881 C 607.010254 2232.137451 626.789856 2254.563477 646.721375 2276.85083 C 676.028137 2309.621582 707.251831 2340.422119 741.054382 2368.609375 C 772.424988 2394.768555 802.233459 2422.79834 836.39386 2445.556885 C 876.255188 2472.113281 915.185791 2500.096436 955.470886 2525.981201 C 1047.137329 2584.879639 1143.830444 2634.351318 1244.911011 2674.932617 C 1300.05481 2697.071533 1356.045532 2717.101318 1411.663086 2738.05957 C 1423.452271 2742.502197 1435.22998 2746.985596 1447.126709 2751.123291 C 1449.778198 2752.04541 1453.072021 2752.271484 1455.785034 2751.624023 C 1461.256104 2750.317871 1466.585571 2748.337646 1471.878418 2746.378906 C 1501.155151 2735.544189 1530.378296 2724.564697 1559.666016 2713.760254 C 1646.680054 2681.659424 1732.179443 2646.090088 1814.568237 2603.300293 C 1872.164429 2573.386963 1927.932983 2540.349854 1982.049316 2504.60083 C 2016.7323 2481.688965 2050.523438 2457.427002 2085.886963 2432.930908 Z"/>
    <path id="path1" fill="#fefefe" stroke="none" d="M 1894.310791 2456.038574 C 1895.101318 2463.375732 1894.115112 2468.436523 1890 2472 C 1889.153687 2472.73291 1807.834717 2517.975586 1801.341919 2516.834961 C 1797.141113 2512.119141 1795.1875 2459.653809 1793.634033 2438.803955 C 1791.238159 2406.649902 1787.882935 2318.706787 1785.637695 2307.071045 C 1785.234375 2304.981201 1781.759033 2302.660889 1779.2854 2301.994873 C 1775.923462 2301.090088 1772.539185 2308.272949 1772.481934 2308.924072 C 1770.855713 2327.404541 1768.403931 2345.861084 1767.845093 2364.374756 C 1767.050903 2390.682129 1767.578247 2417.031982 1767.677612 2443.363281 C 1767.765381 2466.630127 1764.094971 2528.125977 1764.427368 2535.669922 C 1764.679321 2541.385742 1762.562744 2545.288818 1757.531006 2547.673584 C 1746.143066 2553.069824 1734.819336 2558.615479 1723.300781 2563.719482 C 1674.126587 2585.509033 1625.416748 2608.405029 1574.58374 2626.260498 C 1561.770874 2630.760986 1549.190796 2635.951416 1536.281738 2640.140625 C 1527.810913 2642.889404 1524.582642 2640.551758 1524.084961 2631.533691 C 1523.591431 2622.590088 1523.976807 2613.576416 1524.363647 2604.610107 C 1525.346191 2581.828369 1527.080688 2559.066162 1527.522949 2536.276855 C 1528.085449 2507.289551 1527.906616 2478.280273 1527.55188 2449.286621 C 1527.426514 2439.04834 1522.307251 2356.97583 1521.386108 2335.130615 C 1520.43689 2312.62085 1518.183838 2290.15918 1516.222046 2267.701172 C 1515.213257 2256.154297 1513.664429 2244.651611 1512.20166 2233.14917 C 1511.87085 2230.548096 1509.920898 2217.631104 1500 2219 C 1495.946533 2219.559326 1492.410156 2230.312744 1492.393799 2233.149414 C 1492.184204 2269.452637 1492.164063 2305.75708 1492.13147 2342.061035 C 1492.122559 2352.059814 1492.831543 2437.396973 1492.179565 2470.048096 C 1491.489746 2504.588135 1489.641479 2539.104248 1488.357056 2573.633301 C 1487.628296 2593.2229 1486.404175 2637.076172 1486.355957 2639.408203 C 1486.008423 2656.222656 1475.853027 2666.186279 1459.189941 2664.76123 C 1449.683838 2663.947998 1439.924194 2662.456055 1430.989258 2659.274658 C 1402.215942 2649.029297 1373.797607 2637.790527 1345.193359 2627.065674 C 1326.241455 2619.959961 1307.04834 2613.473145 1288.247681 2605.994385 C 1265.389526 2596.900635 1242.798584 2587.130615 1220.169678 2577.470947 C 1215.613281 2575.525391 1211.300293 2572.935547 1207.059448 2570.341553 C 1199.365234 2565.63623 1196.118774 2558.731201 1195.543579 2549.60083 C 1191.58374 2486.756104 1192.541504 2423.84375 1192.266846 2360.942383 C 1192.207642 2347.366211 1188.468994 2322.994873 1184 2310 C 1182.711304 2306.252686 1174.036133 2303.118408 1168.457397 2304.251465 C 1162.926514 2305.375 1157.882813 2337.016357 1157.707397 2348.279297 C 1157.292236 2374.937744 1155.226563 2467.392822 1154.442749 2486.967773 C 1154.016357 2497.616943 1153.30127 2534.081299 1149.697144 2541.489258 C 1142.354858 2541.109863 1135.879028 2538.784424 1129.666504 2535.71875 C 1096.302368 2519.256348 1062.588745 2503.438965 1030.876709 2483.8479 C 1011.361511 2471.791748 992.117493 2459.296631 972.613464 2447.221924 C 964.567444 2442.240479 960.268311 2436.143066 961.508667 2426.018066 C 963.442505 2410.231689 963.59082 2394.209473 965.863647 2378.484863 C 969.984985 2349.97168 974.357666 2321.452148 980.029175 2293.217285 C 985.976379 2263.609619 994.796997 2234.716309 1005.410645 2206.374023 C 1022.651306 2160.334961 1051.172607 2123.018799 1089.413208 2092.222412 C 1128.047974 2061.108887 1170.332397 2036.40625 1215.745239 2017.152466 C 1284.016846 1988.207031 1295.92749 1949.321777 1298.981079 1945.426514 C 1304.018188 1939.001343 1307.762207 1938.203979 1314.312378 1942.960938 C 1319.916748 1947.031128 1364.350464 1991.147461 1380.933472 2008.871094 C 1403.398804 2032.881348 1449.525879 2098.600342 1453.877441 2104.448242 C 1464.303345 2118.459961 1483.359009 2159.491211 1486.619141 2163.606934 C 1491.837524 2170.194824 1498.055176 2169.890137 1503.306641 2163.490479 C 1523.192749 2139.25708 1538.859009 2112.308105 1553.737061 2084.873047 C 1567.892944 2058.769775 1579.134766 2031.502319 1586.222778 2002.573975 C 1587.310791 1998.133545 1589.225464 1993.704102 1591.644409 1989.822021 C 1596.454834 1982.10144 1604.609741 1980.103638 1612.106323 1985.110352 C 1620.107544 1990.454224 1628.048584 1996.097046 1635.117065 2002.588013 C 1653.767334 2019.7146 1676.039551 2030.703613 1698.34314 2041.891968 C 1719.389526 2052.449707 1771.546265 2084.047852 1776.559326 2088.859619 C 1787.137817 2099.012939 1797.081055 2109.836426 1807.798706 2119.834229 C 1825.887573 2136.708008 1836.862671 2157.982178 1843.884766 2180.940674 C 1853.192627 2211.372559 1861.042236 2242.289551 1868.405518 2273.262451 C 1872.765381 2291.602539 1880.809814 2342.078857 1881.678711 2348.641846 C 1884.679077 2371.307373 1887.535034 2393.992676 1890.317505 2416.686279"/>
    <path id="path2" fill="#fdfdfd" stroke="none" d="M 1495.391724 432.076904 C 1496.293335 448.317383 1489.751221 462.568604 1483.089478 476.674561 C 1479.125854 485.067139 1474.654663 493.278809 1469.736572 501.149902 C 1458.805908 518.644775 1454.185059 538.054199 1454.657959 558.116699 C 1455.259033 583.613525 1457.06958 609.174805 1460.107056 634.498779 C 1464.247559 669.018555 1469.690308 703.396973 1475.249023 737.726807 C 1478.745728 759.322266 1483.458008 780.72168 1487.68335 802.197754 C 1488.129639 804.466309 1497.79248 817.862549 1504.07959 813.351563 C 1515.119019 805.430664 1526.075684 797.197998 1535.980835 787.93457 C 1555.511475 769.669189 1570.883667 747.897705 1585.753662 725.789551 C 1600.949219 703.196777 1614.830933 679.511719 1631.954834 658.476074 C 1655.181885 629.942627 1685.722778 612.38916 1723.302734 609.274658 C 1761.799805 606.084473 1797.929321 613.65332 1831.132935 633.70874 C 1835.615723 636.41626 1838.748291 641.266357 1843.431763 643.735107 C 1858.989624 651.935547 1849.903076 656.34082 1845.815674 663.111084 C 1842.437744 668.706055 1838.700439 674.338379 1834.070435 678.88208 C 1801.703491 710.646484 1729.822998 731.561279 1705.69751 730.819092 C 1687.46936 730.258301 1669.892822 723.831787 1652.09314 719.871582 C 1643.720337 718.008789 1637.834351 721.025146 1633.00708 727.351563 C 1630.387817 730.78418 1627.514648 734.111572 1625.457031 737.870117 C 1611.03186 764.220947 1592.205811 787.571045 1575.364014 812.277832 C 1560.819214 833.614746 1543.513794 852.247681 1525.142578 870.138428 C 1518.006104 877.088257 1511.663086 884.845337 1504.728271 892.011719 C 1497.375854 899.609375 1494.060425 908.886475 1493.773438 919.081787 C 1493.062134 944.353638 1492.751831 969.637573 1492.412964 994.918457 C 1492.247803 1007.248901 1491.977295 1019.599609 1492.478394 1031.911743 C 1493.098267 1047.140991 1494.51355 1062.336914 1495.487061 1077.553467 C 1495.741943 1081.537964 1495.653564 1085.545288 1495.689941 1089.542358 C 1495.919678 1114.84082 1494.778687 1140.245605 1496.74585 1165.407715 C 1498.724976 1190.720459 1497.687622 1215.952881 1498.407837 1241.20874 C 1498.577881 1247.169189 1499.223633 1253.121094 1499.782837 1259.064575 C 1500.880615 1270.736328 1507.042603 1274.30835 1517.453247 1268.532715 C 1533.423584 1259.672607 1549.593262 1251.005127 1564.733765 1240.8479 C 1606.960205 1212.52002 1648.863037 1183.700806 1690.572754 1154.615112 C 1715.529175 1137.212036 1737.247437 1116.078003 1756.630005 1092.683472 C 1767.630249 1079.406372 1778.879761 1066.098389 1787.965576 1051.525391 C 1803.540161 1026.544434 1816.333374 970.447632 1831 945 C 1851.30835 909.76355 1846.514526 927.872437 1864 892 C 1868.547852 882.6698 1885.29248 859.922363 1895 855 C 1909.168823 847.81543 1914.775269 847.654297 1919 848 C 1938.285156 849.577148 1950.123169 848.34375 1968 856 C 1973.376099 858.30249 1990.014893 869.073242 1995 872 C 1993.955811 880.863647 1985.373413 888.004761 1980 892 C 1961.493164 905.760254 1950.062378 918.743164 1926 917 C 1920.363281 916.591797 1899.389038 914.292236 1893.732178 914.060547 C 1881.169678 913.545898 1877.543457 902.827271 1874 915 C 1869.37146 930.89978 1860.01001 962.924438 1856.106934 979.020752 C 1853.927612 988.008789 1852.468506 997.182251 1850.960815 1006.317749 C 1850.206909 1010.885864 1849.750854 1015.554443 1849.727295 1020.180664 C 1849.683472 1028.810669 1852.660889 1031.015747 1860.86438 1027.965942 C 1885.738892 1018.718262 1910.656616 1009.55835 1935.283813 999.681763 C 1966.717651 987.075439 1997.326416 972.679565 2027.022217 956.293213 C 2046.205811 945.70752 2060.602783 930.564575 2072.69751 912.733398 C 2076.606445 906.970215 2080.903076 901.460938 2085.179932 895.957764 C 2103.283447 872.663208 2128.389648 864.203613 2156.613037 862.029541 C 2178.085693 860.375488 2198.066895 866.732178 2218.10083 872.81958 C 2226.979004 875.517212 2235.646973 878.915771 2244.367432 882.11377 C 2245.841064 882.654297 2247.095459 883.79248 2249.314941 885.203857 C 2243.114746 892.680054 2237.771729 900.247925 2231.320068 906.708496 C 2202.506836 935.561768 2167.483154 953.007568 2127.624756 960.270264 C 2113.009277 962.93335 2097.919434 963.32605 2083.012451 963.930908 C 2074.023926 964.295654 2066.1875 966.376099 2059.021973 971.949707 C 2039.883911 986.835693 2020.694824 1001.665771 2001.236328 1016.12854 C 1978.207397 1033.245361 1953.192627 1047.177124 1927.435425 1059.640259 C 1887.16626 1079.125244 1852.240234 1105.798462 1820.29126 1136.781128 C 1805.720947 1150.910645 1790.627808 1164.499756 1775.887451 1178.456177 C 1772.277222 1181.87439 1768.933228 1185.619263 1765.794189 1189.480103 C 1758.299316 1198.698242 1760.805054 1205.407349 1772.543823 1207.909912 C 1775.135132 1208.462402 1777.760376 1209.097534 1780.388794 1209.197021 C 1806.27832 1210.17749 1831.985596 1214.955322 1857.990967 1213.226074 C 1871.550781 1212.324463 1885.099976 1211.06311 1898.59668 1209.476929 C 1907.25769 1208.459229 1913.920044 1203.22644 1919.650391 1197.033081 C 1924.615234 1191.666992 1929.234863 1185.970947 1933.845825 1180.289795 C 1947.581299 1163.366455 1965.251465 1151.621948 1984.772095 1142.754883 C 1999.935059 1135.867065 2015.980713 1134.651123 2032.531128 1137.888794 C 2053.54126 1141.998901 2072.154785 1150.948486 2089.102051 1163.733154 C 2090.424072 1164.730347 2091.710205 1165.837158 2092.776367 1167.093628 C 2093.830078 1168.334961 2094.583984 1169.830933 2095.938721 1171.949219 C 2093.036377 1175.410889 2090.563477 1179.516235 2087.062256 1182.352051 C 2061.4021 1203.137451 2032.980469 1217.028564 1999.058228 1217.373291 C 1984.787842 1217.518311 1970.480103 1218.119019 1956.275146 1219.437866 C 1941.539185 1220.805786 1928.043091 1226.87085 1914.870361 1233.189331 C 1907.62146 1236.66626 1907.86731 1241.882446 1914.554443 1246.873047 C 1926.789551 1256.004028 1938.827759 1265.408813 1951.249878 1274.276733 C 1963.354736 1282.918213 1972.7146 1294.108398 1981.495728 1305.799561 C 1987.960327 1314.406738 1996.535278 1318.562378 2006.765747 1320.035645 C 2016.937988 1321.500366 2027.222534 1322.335205 2037.30249 1324.259521 C 2058.083496 1328.226563 2075.396484 1338.45105 2090.979004 1352.886108 C 2113.08374 1373.363525 2124.13623 1399.699341 2133.70459 1427.11792 C 2134.879639 1430.484741 2135.783691 1433.945923 2137.008545 1438.011719 C 2131.182617 1438.448242 2125.593506 1438.974487 2119.991943 1439.259644 C 2112.689209 1439.631714 2105.344482 1440.382813 2098.07373 1439.976196 C 2067.699219 1438.27771 2037.410278 1434.57373 2011.242554 1417.832764 C 1989.645264 1404.015747 1974.557495 1383.808105 1968.266724 1358.645874 C 1964.702637 1344.389648 1957.966553 1333.167969 1947.342773 1323.370605 C 1916.870239 1295.267822 1882.353027 1275.295898 1841.088989 1267.829468 C 1812.518677 1262.659912 1783.876221 1259.818726 1754.822754 1262.059448 C 1716.502808 1265.014648 1680.436401 1276.353149 1646.732178 1293.979614 C 1614.83606 1310.6604 1585.441895 1331.319458 1561.805298 1359.206909 C 1550.846436 1372.136353 1539.147949 1384.436157 1527.99231 1397.202881 C 1522.891602 1403.040283 1516.936035 1405.439087 1509.358643 1403.679565 C 1489.421021 1399.049438 1469.127441 1399.351685 1448.855225 1399.279053 C 1430.525024 1399.213379 1412.486938 1402.033813 1394.409912 1404.552979 C 1386.87439 1405.603027 1379.306763 1406.435425 1371.742798 1407.266113 C 1366.110596 1407.884277 1362.219482 1405.019775 1359.228027 1400.604614 C 1343.776123 1377.798584 1323.259888 1359.625 1304.074951 1340.228027 C 1284.243042 1320.176758 1260.904053 1304.835693 1236.612305 1291.029419 C 1206.558105 1273.947876 1174.218872 1263.919067 1139.67981 1259.775391 C 1113.124878 1256.589478 1087.008545 1258.650146 1061.545654 1264.4823 C 1019.876648 1274.026001 980.008789 1288.670532 946.660522 1317.019653 C 930.682861 1330.602173 918.617859 1346.103149 912.555908 1367.085205 C 904.985046 1393.289917 889.118713 1413.921265 865.012024 1428.677734 C 837.605408 1445.454224 808.206482 1449.407715 777.210754 1447.750977 C 776.636169 1447.720337 776.091431 1447.130737 775.122986 1446.560547 C 774.721008 1430.808716 780.944397 1416.428589 786.380493 1402.018433 C 792.708923 1385.24292 799.890625 1368.88623 811.648926 1354.808228 C 828.151855 1335.049561 848.137512 1321.106201 873.294495 1315.050659 C 877.451111 1314.050049 881.797668 1313.703735 886.080994 1313.390625 C 897.043518 1312.589355 906.765686 1309.099243 914.858887 1301.365723 C 925.438171 1291.256348 935.542847 1280.504272 947.012329 1271.508545 C 962.401062 1259.438843 977.889465 1247.255859 995.851563 1238.927856 C 996.757629 1238.507568 1005.662109 1226.632568 998.59198 1222.994995 C 990.640442 1218.903809 982.316345 1215.532593 974.13031 1211.902466 C 965.313538 1207.99231 956.36322 1211.197388 947.56958 1211.876709 C 936.347229 1212.743652 925.264099 1215.410278 914.041809 1216.278564 C 881.853943 1218.769043 850.909546 1215.74707 824.70874 1193.904785 C 820.63562 1190.509155 815.876892 1187.928345 811.855408 1184.480713 C 808.71814 1181.79126 806.233215 1178.34082 802.905151 1174.608032 C 818.936035 1159.802368 833.463989 1144.853882 854.079407 1139.396606 C 873.920044 1134.144531 894.303589 1134.027344 914.241333 1139.072144 C 927.332764 1142.384644 938.161621 1150.763916 948.530518 1159.018555 C 959.388611 1167.662598 969.817932 1177.020142 979.39209 1187.060059 C 992.893066 1201.217896 1010.269958 1205.818359 1028.331543 1209.234375 C 1048.937744 1213.131348 1069.248291 1211.975586 1089.294312 1205.44165 C 1094.278931 1203.816772 1099.795654 1203.905396 1104.95459 1202.715576 C 1111.952759 1201.101685 1113.810791 1196.887207 1109.630493 1191.075073 C 1104.399658 1183.802002 1098.953979 1176.543091 1092.680542 1170.186646 C 1073.51355 1150.766113 1054.460938 1131.166626 1034.23645 1112.883911 C 1023.991943 1103.622803 1011.625488 1096.540527 999.690063 1089.35022 C 965.667664 1068.854248 934.339905 1044.684814 904.811768 1018.364136 C 889.775269 1004.960938 875.691284 989.886719 863.95697 973.568604 C 854.283447 960.116333 843.162964 955.912598 828.208862 958.377441 C 802.554932 962.605713 777.191956 961.385864 752.320862 954.084595 C 739.620911 950.356445 726.627502 946.506348 715.06311 940.296875 C 698.145386 931.212891 681.245056 925.75769 666.272766 909.44043 C 656.440125 898.724487 643.547363 889.525146 647 887 C 649.407837 885.239014 660.147644 882.793457 662.792236 881.426514 C 686.244812 869.303711 710.91626 860.523682 737.042114 856.722412 C 744.344177 855.659912 752.228577 857.389648 759.677124 858.757324 C 788.684143 864.08374 813.509094 877.405518 833.750122 898.940552 C 843.514099 909.328735 852.883057 920.088379 862.653259 930.470703 C 870.363892 938.664307 877.825378 947.247314 886.440063 954.4021 C 903.029175 968.179688 919.08551 982.889526 938.385254 992.928467 C 951.906189 999.961426 965.975891 1005.949219 979.874756 1012.239502 C 983.947876 1014.083008 995.582825 1019.930176 999 1016 C 1002.214478 1012.302856 1009.420898 1008.026733 1003 1001 C 997.852783 995.367188 976.733826 984.758301 972 979 C 959.028748 963.22168 960.716553 944.904541 954.957214 925.669189 C 950.095154 909.431152 944.409363 893.589233 934.66156 877.931396 C 938.16925 875.717529 941.121643 873.077515 944.577454 871.810791 C 957.856323 866.942871 970.865356 868.47998 983.012207 875.370117 C 1006.793335 888.859375 1025.2771 907.344971 1036.190308 932.866699 C 1049.167969 963.216553 1047.60083 991.142578 1043 1024 C 1040.78479 1039.819824 1054.467651 1055.976318 1066.265503 1066.563599 C 1076.168457 1075.450439 1085.426147 1085.052734 1095.086304 1094.214966 C 1110.026123 1108.38501 1124.292603 1123.408691 1140.275269 1136.296265 C 1157.037842 1149.812744 1175.286133 1161.539673 1193.25415 1173.494141 C 1212.048706 1185.998413 1231.407593 1197.651367 1250.29187 1210.024292 C 1273.934082 1225.514648 1297.406128 1241.267578 1320.831543 1257.084839 C 1335.156006 1266.75708 1349.213135 1276.824463 1363.47644 1286.588623 C 1369.125732 1290.456177 1374.659668 1296.687134 1382.168335 1293.522095 C 1389.876099 1290.273071 1387.504395 1282.052734 1387.888062 1275.729492 C 1389.355713 1251.545044 1389.461304 1227.237671 1391.913086 1203.163452 C 1394.824341 1174.577271 1392.561279 1145.905518 1394.638428 1117.439941 C 1398.351074 1066.556519 1396.900879 1015.65686 1397.843506 964.766479 C 1398.273438 941.563721 1391.857788 920.91748 1379.474487 901.768555 C 1375.150269 895.081787 1370.510132 888.597168 1365.939697 882.072266 C 1349.918945 859.200684 1333.050415 836.871094 1318.066528 813.340576 C 1304.523804 792.072998 1293.114746 769.452637 1280.593018 747.526855 C 1273.676147 735.415039 1266.396362 723.510742 1259.299316 711.501709 C 1255.337402 704.797363 1249.204102 702.16626 1241.72229 702.101563 C 1229.75647 701.998047 1217.725708 702.695801 1205.840698 701.675293 C 1190.990967 700.400635 1175.855591 699.222168 1161.566162 695.341064 C 1134.11145 687.884277 1108.310913 675.79541 1086.470825 657.391357 C 1074.924438 647.661621 1065.402588 635.309082 1056.000122 623.32959 C 1049.212769 614.681641 1036.855103 608.280518 1060.415405 602.873047 C 1090.185425 596.040283 1115.79541 577.08252 1147.414917 577.234375 C 1184.1521 577.410889 1216.541748 588.020508 1243.310791 614.273926 C 1261.527588 632.140137 1276.858765 652.01709 1288.546143 674.60498 C 1296.022583 689.054688 1302.985474 703.796631 1309.561279 718.68042 C 1324.804077 753.18042 1347.9198 781.398438 1376.803345 805.300049 C 1384.474121 811.647705 1391.15564 819.177002 1398.638428 825.77002 C 1407.117676 833.240967 1413.262451 831.254883 1414.952515 820.041504 C 1416.729004 808.25293 1417.402344 796.285645 1418.272949 784.375732 C 1420.159058 758.57251 1422.034302 732.766113 1423.58667 706.941406 C 1424.763306 687.364258 1425.327393 667.751221 1426.358521 648.164307 C 1427.457764 627.284424 1428.928955 606.423584 1429.966797 585.541016 C 1430.759399 569.591797 1431.82251 553.607178 1431.48291 537.665527 C 1431.172974 523.121826 1429.033081 508.822021 1423.005005 495.06543 C 1409.306274 463.803467 1411.081909 431.672852 1419.655518 399.461182 C 1423.822388 383.806152 1431.047119 369.710205 1441.162109 357.059082 C 1443.842041 353.707275 1446.261108 350.146973 1450.065674 346.451172 C 1452.758423 343.191895 1458.983765 334.849854 1460 336 C 1470.55481 347.94751 1480.116211 370.781738 1486 386 C 1490.656738 398.044678 1495.73645 425.023926 1495.391724 432.076904 Z"/>
    <path id="path3" fill="#fefefe" stroke="none" d="M 1431.964355 1968.053833 C 1391.996094 1952.23291 1363.315063 1925.623535 1346.859009 1886.454956 C 1345.209961 1882.530029 1343.766235 1878.094482 1343.868774 1873.936401 C 1344.195435 1860.696777 1339.323242 1848.530273 1337.006592 1835.851807 C 1335.740601 1828.922974 1331.49231 1824.778931 1325.259277 1822.16748 C 1318.518066 1819.342896 1311.386963 1825.48877 1305 1822 C 1285.1427 1811.153198 1271.729858 1786.480835 1266.061157 1764.258789 C 1261.782349 1747.485718 1258.925537 1730.507568 1260.320801 1713.123779 C 1261.353271 1700.260864 1266.229248 1684.109375 1279 1684 C 1287.330933 1683.928711 1295.350708 1696.296997 1303.671875 1696.003418 C 1307.830933 1695.856812 1311.957764 1694.798218 1318.102051 1693.839722 C 1315.221802 1688.967163 1313.690186 1685.384888 1311.291382 1682.531494 C 1306.80127 1677.19043 1301.901855 1672.180298 1297.007935 1667.194214 C 1281.195679 1651.084351 1275.97168 1631.18689 1277.963867 1609.541016 C 1279.324219 1594.759888 1281.89563 1579.909668 1285.726318 1565.571411 C 1296.065918 1526.870239 1318.284912 1496.98584 1353.896851 1477.553711 C 1368.782349 1469.431152 1383.737549 1461.624268 1400.502441 1458.134277 C 1434.9104 1450.971313 1469.049561 1451.200684 1502.94519 1461.47522 C 1521.181763 1467.003052 1538.636108 1474.193237 1554.531006 1484.698975 C 1580.717407 1502.006958 1600.424683 1524.637573 1610.435791 1554.901855 C 1614.803711 1568.105957 1619.387817 1581.246094 1623.37207 1594.56543 C 1624.869629 1599.571289 1625.539673 1604.998535 1625.57312 1610.240112 C 1625.771729 1641.56543 1625.67627 1672.8927 1625.675537 1704.219238 C 1625.674927 1733.843384 1625.930664 1763.470703 1625.584595 1793.09082 C 1625.300537 1817.39563 1622.90625 1841.343994 1611.923218 1863.734253 C 1608.453003 1870.808594 1606.57605 1878.69165 1604.230835 1886.285278 C 1597.887695 1906.823364 1587.671265 1925.432861 1575.690796 1943.089478 C 1572.777466 1947.38269 1568.759033 1951.224731 1564.528442 1954.275146 C 1543.578857 1969.380005 1520.807007 1978.47522 1494.221924 1978.398682 C 1472.964233 1978.337402 1452.459839 1976.28772 1431.964355 1968.053833 M 1522.782227 1587.891968 C 1525.952393 1586.067993 1529.271729 1584.458618 1532.264526 1582.379272 C 1540.99292 1576.314819 1549.731689 1570.247192 1558.185425 1563.812012 C 1562.989868 1560.154785 1565.589111 1555.167358 1563.182617 1548.900879 C 1560.709839 1542.461548 1558.052368 1536.093262 1555.639648 1530.101318 C 1549.684692 1528.27478 1545.397339 1530.197632 1541.161011 1533.398071 C 1528.956787 1542.61792 1516.861572 1552.02478 1504.205933 1560.593628 C 1487.72583 1571.751587 1469.478149 1578.316528 1449.466675 1580.265137 C 1419.703491 1583.16333 1390.006592 1586.734863 1360.266357 1589.87793 C 1355.143555 1590.419434 1352.071533 1592.78418 1351.873291 1597.892578 C 1351.642334 1603.849976 1351.314209 1609.910767 1352.11377 1615.778687 C 1353.718018 1627.555176 1359.381592 1637.418457 1368.445435 1647.004639 C 1372.592041 1643.131592 1376.916626 1640.352783 1379.471802 1636.423462 C 1383.779419 1629.798706 1387.263794 1622.580078 1390.537964 1615.359009 C 1393.824097 1608.11145 1396.953491 1605.374756 1404.891357 1605.515137 C 1409.18335 1605.590942 1413.488159 1606.370117 1417.739014 1607.108643 C 1432.190552 1609.619873 1446.808228 1612.699829 1461.318604 1609.376953 C 1482.050171 1604.629395 1502.185181 1597.758179 1522.782227 1587.891968 Z"/>
    <path id="path4" fill="#fefefe" stroke="none" d="M 786 1649 C 798.961243 1636.014526 819.442444 1629.040405 835.474182 1620.836304 C 852.951538 1611.892456 877.383301 1613.663818 896 1609 C 932.854065 1599.766968 958.113586 1609.154419 988.024902 1627.654419 C 1006.401672 1639.020264 1021.78595 1653.613647 1031.664673 1673.078369 C 1041.772827 1692.994995 1048.841675 1713.879517 1050.442383 1736.474365 C 1051.775146 1755.287598 1054.919556 1774.000488 1055.650269 1792.820435 C 1056.39624 1812.030396 1046.459351 1806.749512 1046 1826 C 1045.834106 1832.952515 1053.969482 1864.460815 1053.685059 1871.412109 C 1052.96582 1888.992065 1052.780029 1906.607056 1051.546509 1924.149414 C 1049.916626 1947.327515 1015.869934 1998.654297 1010.468384 2004.959839 C 992.100891 2026.400879 968.850525 2040.120361 941.468567 2045.98877 C 924.759338 2049.56958 907.905334 2046.997925 891.135071 2043.532471 C 858.262512 2036.739746 833.982361 2018.065796 815.102783 1991.198853 C 804.559204 1976.194824 794.641663 1960.869995 790.428589 1942.697876 C 788.303711 1933.533081 786.340027 1927.092896 778 1924 C 763.885132 1918.765503 761.384277 1951.245605 734 1923 C 725.705872 1914.445068 717.630676 1884.043701 717 1872 C 716.410522 1860.743774 717.09906 1847.248047 717 1836 C 716.895386 1824.130615 721.164429 1809.404541 734 1810 C 738.924194 1810.228394 759.016418 1820.542236 763 1819 C 768.734131 1816.779907 768.573547 1806.93103 766.393372 1800.921143 C 765.72113 1799.068237 764.879578 1797.240234 763.860291 1795.555176 C 751.729126 1775.49939 750.197815 1753.625732 752.750488 1731.05835 C 756.241028 1700.200317 764.921875 1671.479126 786 1649 Z"/>
    <path id="path5" fill="#fefefe" stroke="none" d="M 843.407532 2110.63916 C 858.015991 2127.167236 872.781616 2141.804199 893.069519 2150.790039 C 911.937805 2159.147217 941.913391 2147.681396 950.512695 2132.630615 C 954.796387 2125.133301 966.176819 2105.641602 967.538696 2103.372803 C 975.515442 2090.080078 990.106628 2090.042236 998.356689 2103.398926 C 999.468201 2105.198486 997.083191 2120.693604 994.638367 2125.630371 C 983.590637 2147.939209 971.302979 2169.679199 961.214661 2192.401855 C 954.688293 2207.101807 949.92865 2222.877686 946.577148 2238.638916 C 937.831482 2279.767822 930.222961 2321.139893 922.323975 2362.446045 C 920.023193 2374.477539 918.533142 2386.665527 916.178955 2398.685059 C 914.53064 2407.101074 911.120605 2408.362549 903.464722 2404.236816 C 902.013 2403.45459 781.528076 2305.332764 755.478577 2280.06958 C 731.09137 2256.418457 707.817688 2231.794678 686.040405 2205.844727 C 669.635803 2186.296875 655.04541 2165.223145 639.747742 2144.753906 C 637.587036 2141.862549 635.995422 2138.545898 634.278137 2135.657715 C 636.49823 2128.83667 640.999451 2124.420654 646.192505 2120.719971 C 668.945801 2104.504883 692.440979 2089.433105 717.375793 2076.793945 C 727.98938 2071.414307 736.872314 2064.41626 744.196472 2055.075928 C 749.109802 2048.80957 754.49176 2042.868896 760.055725 2037.164551 C 768.090942 2028.926514 775.95874 2028.859497 784.059937 2037.362427 C 790.456238 2044.07605 796.173401 2051.453857 801.989258 2058.699707 C 815.70166 2075.783691 829.292969 2092.964844 843.407532 2110.63916 Z"/>
    <path id="path6" fill="#fdfefe" stroke="none" d="M 1832.332275 1939.561279 C 1833.504761 1922.490967 1826.887451 1908.546143 1835.529297 1892.523682 C 1842.695679 1882.951904 1872.332275 1890.374023 1888.703735 1899.206543 C 1903.65918 1907.275146 1915.67688 1905.102295 1927.827637 1895.028809 C 1935.232788 1888.889526 1978.571777 1853.661011 1986.277588 1843.283569 C 1990.62793 1837.425049 1991.52124 1818.008789 1992.164551 1815.486084 C 1993.6698 1809.58374 1998.650513 1807.512573 2002.310303 1811.811279 C 2013.237915 1824.64624 2059.531982 1850.439941 2068.297363 1855.700073 C 2070.226318 1856.85791 2111.061279 1863.648071 2130.050781 1857.487305 C 2145.025635 1860.692749 2143.864014 1898.588135 2144.092773 1915.173706 C 2144.413818 1938.466187 2144.500732 1961.672485 2140.074463 1984.648926 C 2135.44751 2008.665894 2076.766113 2088.163818 2052.840332 2098.498535 C 2021.33252 2112.10791 1995.546143 2113.831055 1968 2093 C 1957.95813 2085.40625 1941.484619 2076.293945 1932 2068 C 1918.161255 2055.898438 1892.349731 2037.934692 1890 2020 C 1888.689209 2009.995972 1869.655151 1992.880005 1858.500977 1985.546997 C 1842.440308 1974.988037 1831.424438 1961.111572 1832.332275 1939.561279 Z"/>
    <path id="path7" fill="#fdfefe" stroke="none" d="M 1940.075439 2421.979248 C 1936.468262 2399.868164 1932.981323 2377.736816 1929.225708 2355.651123 C 1923.674438 2323.006592 1918.372803 2290.310303 1912.133423 2257.795654 C 1907.073975 2231.429443 1901.232422 2205.217773 1889.082642 2180.846191 C 1884.819458 2172.294189 1881.842163 2163.016602 1879.057861 2153.83374 C 1875.720581 2142.827637 1877.086548 2132.591064 1887.07959 2125.164795 C 1893.189575 2120.624023 1914.814087 2108.545166 1919 2112 C 1923.074829 2115.363281 1927.613281 2120.063965 1931.02002 2124.096436 C 1947.771362 2143.926025 1967.595215 2159.55835 1990.971558 2171.108643 C 2015.692505 2183.323242 2046.077515 2177.314697 2062.717529 2159.677246 C 2069.985352 2151.973633 2078.624512 2145.577393 2086.469971 2138.400635 C 2092.724854 2132.678467 2099.352539 2131.353027 2107.435547 2134.429443 C 2134.928467 2144.89209 2160.832764 2158.203857 2184.075195 2176.35083 C 2191.136475 2181.864258 2198.016846 2187.666748 2204.516113 2193.82666 C 2211.268555 2200.226563 2211.668213 2202.305908 2206.770752 2210.226563 C 2202.066162 2217.835205 2196.787598 2225.190918 2190.999023 2232.010986 C 2155.573975 2273.74707 2150.194824 2278.913086 2108 2319 C 2088.726318 2337.310791 2032.167725 2379.126709 2011.300537 2395.60083 C 2006.372925 2399.490967 1952.685791 2435.655029 1946 2439 C 1941.287964 2436.23877 1940.075439 2421.979248 1940.075439 2421.979248 Z"/>
    <path id="path8" fill="#fdfdfd" stroke="none" d="M 1939.516846 1845.518066 C 1918.761108 1862.592896 1922.832642 1863.70105 1893.626221 1861.388306 C 1874.132568 1859.844727 1854.577393 1859.009644 1835.035889 1858.188599 C 1830.182739 1857.984619 1827.890869 1856.291992 1827.061523 1851.494507 C 1823.579346 1831.351807 1822.822998 1811.36145 1828.870361 1791.498047 C 1837.687622 1762.536499 1855.482544 1739.586914 1878.068359 1720.42749 C 1896.833984 1704.508667 1917.428711 1690.96167 1940.960449 1682.7948 C 1992.93042 1664.758301 2037.87085 1679.29187 2059.769531 1687.564819 C 2068.406006 1690.827637 2076.591797 1695.427124 2084.693359 1699.937744 C 2117.103516 1717.9823 2135.873291 1747.363159 2150.477295 1780.052368 C 2154.534668 1789.134155 2158.36084 1798.350586 2161.652832 1807.730103 C 2163.45166 1812.854858 2163.857666 1822.21582 2165 1828 C 2147.826904 1842.022217 2092.684082 1830.084717 2078 1824 C 2058.62793 1815.972656 2039.445557 1797.185669 2023.206787 1784.463745 C 2019.601318 1781.639038 2015.500854 1779.249878 2011.295654 1777.428223 C 2003.044678 1773.854248 1980.443848 1783.15564 1975 1798 C 1967.381104 1818.775269 1941.272461 1843.919189 1939.516846 1845.518066 Z"/>
    <path id="path9" fill="#fdfdfd" stroke="none" d="M 979.62262 598.763916 C 1016.994446 619.478027 1039.30481 652.371826 1053.850708 691.515381 C 1056.837769 699.553711 1061.054443 707.135254 1064.964111 715.481934 C 1061.454834 721.177734 1054.547363 722.371094 1048.289551 723.592285 C 1007.117371 731.62793 971.062683 721.393799 939.806763 693.174805 C 927.554993 682.113281 917.913879 669.180664 908.872681 655.648682 C 903.312744 647.327148 899.012146 638.433105 897.310669 628.364746 C 895.489319 617.586426 893.049072 606.914063 891.12854 596.150879 C 889.970093 589.658691 891.553162 586.673096 897.99939 585.585449 C 905.435059 584.330566 913.083618 584.291992 920.647827 583.869141 C 923.295166 583.721436 964.415833 590.335205 979.62262 598.763916 Z"/>
    <path id="path10" fill="#fcfdfd" stroke="none" d="M 2120.232422 1097.840698 C 2111.058105 1092.500732 2102.079346 1086.821167 2093.071533 1081.199707 C 2090.301758 1079.471313 2087.709717 1077.457764 2083.951904 1074.810913 C 2086.489014 1071.531982 2088.108398 1068.176147 2090.762451 1066.236206 C 2100.351563 1059.227783 2126.659424 1043.966431 2129.4104 1042.108276 C 2143.145264 1032.831543 2158.367188 1028.595459 2174.672852 1025.511353 C 2196.826172 1021.321289 2216.57959 1028.831543 2237.047607 1033.736938 C 2239.252197 1034.265259 2271.401123 1058.993896 2284.604736 1071.058228 C 2294.463623 1080.066528 2293.773682 1084.459229 2282.456299 1092.02417 C 2265.008301 1103.68689 2246.453369 1112.933105 2225.913818 1118.419556 C 2210.779785 1122.46228 2195.552002 1122.934204 2180.406982 1121.707642 C 2171.044189 1120.949341 2126.811279 1101.670044 2120.232422 1097.840698 Z"/>
    <path id="path11" fill="#fcfcfc" stroke="none" d="M 1591.027466 1050.991699 C 1598.304443 1036.36438 1609.641479 1026.026367 1620.127563 1014.893677 C 1639.065796 994.787598 1661.94104 981.512695 1688.170654 973.513794 C 1696.516113 970.96875 1704.940552 969.273193 1713.642944 970.23291 C 1724.322876 971.410645 1727.527466 975.824829 1724.725342 986.475098 C 1720.43335 1002.788086 1716.061157 1019.114746 1710.762329 1035.117676 C 1706.002808 1049.491699 1697.141113 1061.504395 1686.741455 1072.577026 C 1666.017212 1094.642334 1641.082031 1109.54895 1612.381226 1118.677124 C 1602.684326 1121.760986 1592.859375 1122.519897 1582.868042 1122.018066 C 1575.468262 1121.64624 1571.976929 1117.675293 1572.852783 1110.270142 C 1575.287842 1089.68335 1580.234619 1069.804932 1591.027466 1050.991699 Z"/>
    <path id="path12" fill="#fcfdfd" stroke="none" d="M 666.573486 1030.174316 C 679.380615 1025.157959 692.379333 1023.270142 706.385437 1024.768311 C 721.704346 1026.40686 736.620056 1028.740112 750.684448 1035.079468 C 769.869019 1043.726563 787.227295 1055.272217 803.172302 1068.971924 C 803.424438 1069.188477 803.688477 1069.393799 803.92157 1069.629639 C 811.375244 1077.171143 811.104126 1080.616211 801.549988 1084.930054 C 786.751099 1091.612061 771.481018 1097.260498 756.749817 1104.079712 C 738.475891 1112.53894 719.411621 1117.944702 699.413208 1118.804565 C 689.624817 1119.225342 679.627563 1117.392212 669.88385 1115.676392 C 652.47876 1112.611938 635.924988 1107.20874 621.374817 1096.533936 C 602.506409 1082.69104 605.139587 1078.817871 616.390137 1064.052368 C 618.190918 1061.688965 650.690369 1036.395508 666.573486 1030.174316 Z"/>
    <path id="path13" fill="#fcfdfd" stroke="none" d="M 1904.912354 618.899414 C 1925.451904 604.971924 1947.392334 597.541992 1971.470459 595.778564 C 1979.414795 595.196777 1987.178833 593.508057 1996.070557 597.579102 C 1996.070557 600.815918 1996.664673 604.766357 1995.971558 608.476074 C 1992.242554 628.432861 1986.800903 647.569336 1974.745117 664.658936 C 1964.030762 679.84668 1954.108032 695.466064 1940.705078 708.599121 C 1930.476807 718.621826 1919.023682 726.364746 1904.960938 729.052979 C 1889.711426 731.968018 1874.258423 733.827393 1858.879761 736.046631 C 1856.932983 736.327637 1854.862793 736.226074 1852.910767 735.916748 C 1843.560303 734.435547 1840.114624 729.931641 1842.438843 720.702148 C 1846.801514 703.378418 1851.161011 686.066406 1861.988647 671.143555 C 1870.167725 659.870605 1877.391846 647.908203 1885.15625 636.329834 C 1890.052734 629.02832 1896.384277 623.249023 1904.912354 618.899414 Z"/>
    <path id="path14" fill="#fbfcfc" stroke="none" d="M 2213.333496 1222.150635 C 2229.762939 1225.398315 2243.891602 1231.896851 2255.943604 1242.188232 C 2261.930176 1247.300049 2284.174072 1285.439331 2287.034424 1299.518677 C 2288.277588 1305.636963 2287.633789 1307.042969 2281.379639 1308.84314 C 2276.650146 1310.204346 2209.226074 1314.38562 2203.266846 1314.078369 C 2178.873535 1312.820679 2156.268311 1306.651245 2136.718262 1291.105591 C 2125.619873 1282.280762 2116.412354 1272.071533 2110.110107 1259.360352 C 2106.411133 1251.900269 2106.589355 1249.328979 2112.783203 1243.527954 C 2124.387695 1232.659302 2138.211914 1225.71228 2153.687256 1222.102173 C 2158.199951 1221.049316 2206.266602 1221.055786 2213.333496 1222.150635 Z"/>
    <path id="path15" fill="#fcfdfd" stroke="none" d="M 759.8573 1283.842041 C 736.745483 1308.54541 707.71106 1318.242188 675.851685 1317.646851 C 651.733582 1317.196045 627.983887 1311.532471 605.247803 1300.42041 C 606.049622 1297.475464 616.92804 1282.289429 618 1280 C 636.306458 1240.902466 654.004211 1225.687378 697.297302 1216.43103 C 711.6203 1213.368774 726.381287 1214.197754 740.482117 1219.722778 C 746.66272 1222.144287 773.818726 1232.853394 780.06427 1237.547974 C 787.043335 1242.793945 788.034424 1247.378052 783.497009 1254.977905 C 778.61615 1263.152954 762.383057 1281.631592 759.8573 1283.842041 Z"/>
    <path id="path16" fill="#fcfcfc" stroke="none" d="M 1740.86731 866.858643 C 1729.867798 874.303345 1720.348389 882.884766 1707.747559 886.130737 C 1681.781982 892.819336 1623.521729 906.990723 1620.439453 907.38501 C 1616.338745 898.74585 1617.452759 891.001953 1619.556641 883.242188 C 1623.456299 868.858398 1630.980469 856.481201 1640.710693 845.359375 C 1655.853394 828.050537 1672.046631 811.98291 1692.315063 800.518555 C 1704.311646 793.73291 1717.094116 789.400391 1730.573486 786.940186 C 1745.916748 784.139648 1761.285522 781.754883 1776.851318 785.359131 C 1779.111816 785.882568 1798.952515 799.827393 1792.716187 811.367188 C 1789.922485 816.536621 1785.646362 820.939697 1781.834229 825.516602 C 1774.826416 833.930908 1747.812988 861.129639 1740.86731 866.858643 Z"/>
    <path id="path17" fill="#fcfcfc" stroke="none" d="M 2151.077393 719.666992 C 2154.13208 727.904297 2151.421143 734.214844 2146.994141 739.88208 C 2131.299072 759.973633 2112.628662 776.740723 2090.832764 790.081055 C 2076.289063 798.982666 2061.477295 807.35498 2044.090454 808.459961 C 2024.603149 809.698242 2004.915283 811.910156 1986.050415 804.017334 C 1979.284668 801.186768 1972.595337 798.354004 1967.722412 790.69873 C 1972.210815 784.153809 1976.590698 777.213623 1981.520264 770.688721 C 1993.316284 755.075439 2004.731567 739.394287 2021.131592 727.631104 C 2047.429688 708.768555 2075.726074 703.018799 2106.994873 709.876953 C 2109.255127 710.372559 2139.389648 716.975586 2151.077393 719.666992 Z"/>
    <path id="path18" fill="#fcfcfc" stroke="none" d="M 1747.296875 1368.733765 C 1743.596802 1356.930908 1739.894287 1345.925293 1736.951904 1334.720093 C 1734.246948 1324.418823 1736.397339 1321.460938 1746.601318 1317.614502 C 1755.802368 1314.146118 1764.761475 1315.096069 1773.909668 1317.786743 C 1793.354614 1323.505859 1812.337524 1330.04248 1829.070923 1342.059448 C 1854.077515 1360.017578 1866.776123 1385.114868 1871.790405 1414.640137 C 1873.336792 1423.745361 1874.032593 1433.070923 1874.209595 1442.312988 C 1874.420166 1453.305298 1871.655762 1455.95166 1860.48938 1455.133301 C 1851.606323 1454.4823 1842.810547 1452.545532 1833.998047 1451.049561 C 1804.587769 1446.056396 1783.808594 1428.46228 1766.86853 1405.152832 C 1758.832275 1394.094849 1751.779297 1382.565918 1747.296875 1368.733765 Z"/>
    <path id="path19" fill="#fcfdfd" stroke="none" d="M 868.121948 798.982422 C 852.142517 801.785156 837.394714 799.554443 823.253906 794.231934 C 804.292236 787.094971 785.477539 779.33374 770.065491 765.632568 C 759.869568 756.568604 736.055481 730.974854 733.993347 727.837891 C 738.842712 721.248047 744.201111 717.394775 751.441895 715.705078 C 774.473572 710.330811 797.549377 706.255371 821.411133 707.992676 C 855.502686 710.474609 883.995789 724.575195 907.690186 748.7146 C 915.614319 756.787354 921.302185 766.452393 924.849304 777.562256 C 916.309875 784.856445 905.52655 783.50708 896.573608 787.358154 C 887.423645 791.294189 878.156616 794.958008 868.121948 798.982422 Z"/>
    <path id="path20" fill="#fcfcfc" stroke="none" d="M 1146.134399 1332.332886 C 1139.098022 1351.034058 1133.42395 1369.358887 1124.717773 1386.675659 C 1108.685547 1418.564087 1083.670898 1438.268188 1049.098145 1445.915283 C 1034.486816 1449.147095 1019.647766 1450.564087 1003.564026 1447.155151 C 1003.270508 1444.066772 1002.054993 1440.42334 1002.751709 1437.192017 C 1009.666321 1405.121216 1021.939087 1375.618896 1046.49939 1352.790039 C 1062.816528 1337.623291 1081.744751 1326.955811 1104.113892 1323.34729 C 1114.25293 1321.71167 1124.400269 1320.126587 1134.549072 1318.55188 C 1141.896851 1317.411865 1143.824829 1317.785522 1150.16272 1321.697998 C 1148.922241 1324.891113 1147.623047 1328.235474 1146.134399 1332.332886 Z"/>
    <path id="path21" fill="#fafbfb" stroke="none" d="M 1885.426758 529.584473 C 1877.416504 534.834473 1870.216919 540.255127 1862.27002 544.1521 C 1844.430298 552.900391 1826.350098 561.192139 1808.124268 569.109375 C 1788.936646 577.444092 1768.502563 577.187012 1748.225952 575.615479 C 1737.032349 574.748047 1725.946045 572.197998 1714.889282 570.012207 C 1710.460205 569.136719 1706.240601 567.201172 1700.7052 565.337402 C 1702.392578 559.861572 1703.415527 555.065918 1705.306396 550.641357 C 1719.515137 517.393311 1765.583984 485.388428 1804.107178 487.325684 C 1824.040405 488.327881 1842.563599 494.353027 1860.056519 503.426514 C 1869.411377 508.278809 1878.059692 514.499756 1886.974609 520.184814 C 1888.039307 520.86377 1888.774658 522.059082 1889.863281 523.230957 C 1888.472168 525.277344 1887.185181 527.170654 1885.426758 529.584473 Z"/>
    <path id="path22" fill="#fdfdfd" stroke="none" d="M 1276.735474 907.425293 C 1244.839355 903.692383 1216.53833 893.291992 1191.831787 873.885742 C 1178.075928 863.080933 1166.505371 850.214355 1158.453735 834.731445 C 1152.515625 823.3125 1148.048584 811.122559 1143.087158 799.208984 C 1142.360596 797.464844 1142.528931 795.347656 1142.117065 792.089844 C 1147.035767 791.136719 1151.758057 789.549316 1156.518188 789.426025 C 1170.442017 789.065918 1184.502808 788.114746 1198.287231 789.543213 C 1222.710938 792.074219 1264.8396 826.775879 1267.288696 829.453613 C 1287.106934 851.122559 1296.519043 876.415771 1294.121338 906.118164 C 1288.786743 909.197632 1283.191162 908.1521 1276.735474 907.425293 Z"/>
    <path id="path23" fill="#fcfcfc" stroke="none" d="M 1280.931274 525.104492 C 1265.053589 510.888672 1254.363403 493.707031 1244.330811 476.009766 C 1237.134277 463.31543 1234.037231 449.468994 1232.327759 435.190674 C 1231.580811 428.952637 1230.515625 422.725586 1230.259033 416.466064 C 1230.088501 412.30835 1231.094604 408.102295 1231.73938 402.474121 C 1237.570313 403.600586 1242.657471 403.708984 1246.97876 405.583252 C 1259.758789 411.125977 1272.460449 416.942139 1284.770264 423.450684 C 1297.544434 430.20459 1307.663452 440.116699 1316.846191 451.406738 C 1331.593506 469.53833 1342.808716 489.015869 1346.443237 512.440186 C 1348.058838 522.852295 1350.992798 533.088379 1352.143921 543.534912 C 1353.080933 552.037598 1350.234497 553.796631 1341.444214 552.76416 C 1318.548096 550.074219 1299.081299 539.86377 1280.931274 525.104492 Z"/>
    <path id="path24" fill="#fcfcfc" stroke="none" d="M 1660.234375 444.002686 C 1658.289795 452.665527 1656.024292 461.270996 1654.45874 470.001953 C 1649.056885 500.127441 1629.595703 519.739014 1604.049805 532.755859 C 1590.503418 539.658203 1550.665894 543.862061 1549.557495 538.622559 C 1549.081055 536.369629 1548.435059 534.096924 1548.376099 531.820068 C 1547.790894 509.195801 1551.628906 487.741699 1564.345825 468.36499 C 1574.384277 453.06958 1584.5448 437.980225 1600.856812 426.470947 C 1613.914063 418.403076 1624.870728 412.755859 1632 409 C 1644.522461 402.403564 1650.079224 409.409668 1663.454346 404.929443 C 1663.43335 409.877686 1663.220337 413.964355 1662.646362 418.317383 C 1661.930176 419.138672 1660.937012 436.676025 1660.234375 444.002686 Z"/>
    <path id="path25" fill="#fcfcfc" stroke="none" d="M 1173.926392 979.281006 C 1187.219238 978.763306 1198.519165 982.109863 1208.671387 988.979492 C 1242.549683 1011.903564 1260.903076 1043.605957 1262.303223 1084.744629 C 1262.358032 1086.357422 1261.918457 1087.986816 1261.535645 1090.953735 C 1256.297974 1090.953735 1250.960083 1091.893433 1246.075073 1090.803345 C 1210.510864 1082.868042 1182.783203 1064.064209 1166.401855 1030.769165 C 1159.34021 1016.416748 1156.244263 1000.763916 1154.442749 984.911865 C 1154.305054 983.699219 1154.872803 982.40625 1155.336304 979.979004 C 1161.251587 979.744873 1167.112793 979.512939 1173.926392 979.281006 Z"/>
    <path id="path26" fill="#dde0e0" stroke="none" d="M 1662.646362 418.317383 C 1663.33606 418.647461 1663.285645 419.210449 1662.51123 420.026123 C 1661.890503 419.714844 1661.930176 419.138672 1662.646362 418.317383 Z"/>
</svg>